# xmcd
#
# Track frame offsets:
# 183
# 11273
# 23018
# 34893
# 49593
# 61625
# 72223
# 84645
# 96555
# 109753
# 123728
# 134233
#
# Disc length: 1934 seconds
#
#
# Revision: 3
# Processed by: cddbd v1.4PL0 Copyright (c) Steve Scherf et al.
# Submitted via: FreeRIP 2.30 
#
DISCID=a2078c0c
DTITLE=Marvin Gaye - I Heard It Through The Grapevine - In The Groove
DYEAR=1967
DGENRE=Soul
TTITLE0=You
TTITLE1=Tear It Down
TTITLE2=Chained
TTITLE3=I Heard It Through The Grapevine
TTITLE4=At Last
TTITLE5=Some Kind Of Wonderful
TTITLE6=Loving You Is Sweeter Than Ever
TTITLE7=Change What You Can
TTITLE8=It's Love I Need
TTITLE9=Every Now And Then
TTITLE10=You're What's Happening In The World Today
TTITLE11=There Goes My Baby
EXTD=
EXTT0=
EXTT1=
EXTT2=
EXTT3=
EXTT4=
EXTT5=
EXTT6=
EXTT7=
EXTT8=
EXTT9=
EXTT10=
EXTT11=
PLAYORDER=
